<svg xmlns="http://www.w3.org/2000/svg" xmlns:xlink="http://www.w3.org/1999/xlink" xmlns:lucid="lucid" width="1600" height="840"><g transform="translate(-100 -340)" lucid:page-tab-id="0_0"><path d="M460 660h200v120H460z" stroke="#000" stroke-width="2" fill="#fff"/><use xlink:href="#a" transform="matrix(1,0,0,1,465,665) translate(18.125 59.0875)"/><use xlink:href="#b" transform="matrix(1,0,0,1,465,665) translate(84.025 59.0875)"/><path d="M460 1040h200v120H460z" stroke="#000" stroke-width="2" fill="#fff"/><use xlink:href="#a" transform="matrix(1,0,0,1,465,1045) translate(18.125 59.0875)"/><use xlink:href="#b" transform="matrix(1,0,0,1,465,1045) translate(84.025 59.0875)"/><path d="M800 820h200v120H800z" stroke="#000" stroke-width="2" fill="#fff"/><use xlink:href="#c" transform="matrix(1,0,0,1,805,825) translate(49.575 59.0875)"/><path d="M1080 680h200v120h-200z" stroke="#000" stroke-width="2" fill="#fff"/><use xlink:href="#d" transform="matrix(1,0,0,1,1085,685) translate(64.575 59.0875)"/><path d="M1080 1040h200v120h-200z" stroke="#000" stroke-width="2" fill="#fff"/><use xlink:href="#e" transform="matrix(1,0,0,1,1085,1045) translate(25.674999999999997 59.0875)"/><use xlink:href="#f" transform="matrix(1,0,0,1,1085,1045) translate(118.425 59.0875)"/><path d="M1440 840h200v120h-200z" stroke="#000" stroke-width="2" fill="#fff"/><use xlink:href="#g" transform="matrix(1,0,0,1,1445,845) translate(54.525 59.0875)"/><path d="M156 896c-19.88 0-36-25.07-36-56 0-24.74 9.75-45.6 24.88-53.26C144 714 204 700 228 728c12-42 72-28 72 14 36-14 72 42 48 112 24 56 0 126-48 98-12 36.4-60 36.4-72 0-24 28-72 14-72-56z" stroke="#000" stroke-width="2" fill="#fff"/><use xlink:href="#h" transform="matrix(1,0,0,1,125,705) translate(54.55 136.74375)"/><use xlink:href="#i" transform="matrix(1,0,0,1,125,705) translate(97.5 136.74375)"/><path d="M1442 546c-23.2 0-42-16.12-42-36 0-15.9 11.37-29.32 29.02-34.24C1428 429 1498 420 1526 438c14-27 84-18 84 9 42-9 84 27 56 72 28 36 0 81-56 63-14 23.4-70 23.4-84 0-28 18-84 9-84-36z" stroke="#000" stroke-width="2" fill="#fff"/><use xlink:href="#j" transform="matrix(1,0,0,1,1405,425) translate(65.57499999999999 88.775)"/><use xlink:href="#k" transform="matrix(1,0,0,1,1405,425) translate(130.475 88.775)"/><path d="M816 500c-19.88 0-36-17.9-36-40 0-17.67 9.75-32.58 24.88-38.04C804 370 864 360 888 380c12-30 72-20 72 10 36-10 72 30 48 80 24 40 0 90-48 70-12 26-60 26-72 0-24 20-72 10-72-40z" stroke="#000" stroke-width="2" fill="#fff"/><use xlink:href="#l" transform="matrix(1,0,0,1,785,365) translate(77.525 97.525)"/><path d="M351.07 938.78h53.47V1100h35.96" stroke="#000" stroke-width="2" fill="none"/><path d="M351.1 939.78h-1.56l.9-1.7.14-.3h.52z"/><path d="M455.76 1100l-14.26 4.64v-9.28z" stroke="#000" stroke-width="2"/><path d="M354.73 783.54h51.64V720h34.13" stroke="#000" stroke-width="2" fill="none"/><path d="M354.76 784.54h-.8l-.3-1.27-.2-.73h1.3z"/><path d="M455.76 720l-14.26 4.64v-9.28z" stroke="#000" stroke-width="2"/><path d="M662 1100h68V880h50.5" stroke="#000" stroke-width="2" fill="none"/><path d="M662.03 1101H661v-2h1.03z"/><path d="M795.76 880l-14.26 4.64v-9.28z" stroke="#000" stroke-width="2"/><path d="M662 720h68v160h50.5" stroke="#000" stroke-width="2" fill="none"/><path d="M662.03 721H661v-2h1.03z"/><path d="M795.76 880l-14.26 4.64v-9.28z" stroke="#000" stroke-width="2"/><path d="M900 818V572.82" stroke="#000" stroke-width="2" fill="none"/><path d="M901 819h-2v-1.03h2z"/><path d="M900 557.55l4.64 14.27h-9.28z" stroke="#000" stroke-width="2"/><path d="M1002 880h38V740h20.5" stroke="#000" stroke-width="2" fill="none"/><path d="M1002.03 881H1001v-2h1.03z"/><path d="M1075.76 740l-14.26 4.64v-9.28z" stroke="#000" stroke-width="2"/><path d="M1180 802v218.5" stroke="#000" stroke-width="2" fill="none"/><path d="M1181 802.03h-2V801h2z"/><path d="M1180 1035.76l-4.64-14.26h9.28z" stroke="#000" stroke-width="2"/><path d="M1282 740h78v160h60.5" stroke="#000" stroke-width="2" fill="none"/><path d="M1282.03 741H1281v-2h1.03z"/><path d="M1435.76 900l-14.26 4.64v-9.28z" stroke="#000" stroke-width="2"/><path d="M1282 1100h78V900h60.5" stroke="#000" stroke-width="2" fill="none"/><path d="M1282.03 1101H1281v-2h1.03z"/><path d="M1435.76 900l-14.26 4.64v-9.28z" stroke="#000" stroke-width="2"/><path d="M460 840h200v120H460z" stroke="#000" stroke-width="2" fill="#fff"/><use xlink:href="#a" transform="matrix(1,0,0,1,465,845) translate(18.125 59.0875)"/><use xlink:href="#b" transform="matrix(1,0,0,1,465,845) translate(84.025 59.0875)"/><path d="M662 900h68v-20h50.5" stroke="#000" stroke-width="2" fill="none"/><path d="M662.03 901H661v-2h1.03z"/><path d="M795.76 880l-14.26 4.64v-9.28z" stroke="#000" stroke-width="2"/><path d="M356.25 873.06h50.87V900h33.38" stroke="#000" stroke-width="2" fill="none"/><path d="M356.27 874.06h-.8l-.45-2h1.25z"/><path d="M455.76 900l-14.26 4.64v-9.28z" stroke="#000" stroke-width="2"/><path d="M1540 838V613.42" stroke="#000" stroke-width="2" fill="none"/><path d="M1541 839h-2v-1.03h2z"/><path d="M1540 598.16l4.64 14.26h-9.28z" stroke="#000" stroke-width="2"/><defs><path d="M30-248c87 1 191-15 191 75 0 78-77 80-158 76V0H30v-248zm33 125c57 0 124 11 124-50 0-59-68-47-124-48v98" id="m"/><path d="M141-36C126-15 110 5 73 4 37 3 15-17 15-53c-1-64 63-63 125-63 3-35-9-54-41-54-24 1-41 7-42 31l-33-3c5-37 33-52 76-52 45 0 72 20 72 64v82c-1 20 7 32 28 27v20c-31 9-61-2-59-35zM48-53c0 20 12 33 32 33 41-3 63-29 60-74-43 2-92-5-92 41" id="n"/><path d="M114-163C36-179 61-72 57 0H25l-1-190h30c1 12-1 29 2 39 6-27 23-49 58-41v29" id="o"/><path d="M135-143c-3-34-86-38-87 0 15 53 115 12 119 90S17 21 10-45l28-5c4 36 97 45 98 0-10-56-113-15-118-90-4-57 82-63 122-42 12 7 21 19 24 35" id="p"/><path d="M24-231v-30h32v30H24zM24 0v-190h32V0H24" id="q"/><path d="M117-194c89-4 53 116 60 194h-32v-121c0-31-8-49-39-48C34-167 62-67 57 0H25l-1-190h30c1 10-1 24 2 32 11-22 29-35 61-36" id="r"/><path d="M177-190C167-65 218 103 67 71c-23-6-38-20-44-43l32-5c15 47 100 32 89-28v-30C133-14 115 1 83 1 29 1 15-40 15-95c0-56 16-97 71-98 29-1 48 16 59 35 1-10 0-23 2-32h30zM94-22c36 0 50-32 50-73 0-42-14-75-50-75-39 0-46 34-46 75s6 73 46 73" id="s"/><g id="a"><use transform="matrix(0.05,0,0,0.05,0,0)" xlink:href="#m"/><use transform="matrix(0.05,0,0,0.05,12,0)" xlink:href="#n"/><use transform="matrix(0.05,0,0,0.05,22,0)" xlink:href="#o"/><use transform="matrix(0.05,0,0,0.05,27.950000000000003,0)" xlink:href="#p"/><use transform="matrix(0.05,0,0,0.05,36.95,0)" xlink:href="#q"/><use transform="matrix(0.05,0,0,0.05,40.900000000000006,0)" xlink:href="#r"/><use transform="matrix(0.05,0,0,0.05,50.900000000000006,0)" xlink:href="#s"/></g><path d="M205 0l-28-72H64L36 0H1l101-248h38L239 0h-34zm-38-99l-47-123c-12 45-31 82-46 123h93" id="t"/><path d="M115-194c55 1 70 41 70 98S169 2 115 4C84 4 66-9 55-30l1 105H24l-1-265h31l2 30c10-21 28-34 59-34zm-8 174c40 0 45-34 45-75s-6-73-45-74c-42 0-51 32-51 76 0 43 10 73 51 73" id="u"/><path d="M24 0v-261h32V0H24" id="v"/><path d="M96-169c-40 0-48 33-48 73s9 75 48 75c24 0 41-14 43-38l32 2c-6 37-31 61-74 61-59 0-76-41-82-99-10-93 101-131 147-64 4 7 5 14 7 22l-32 3c-4-21-16-35-41-35" id="w"/><path d="M59-47c-2 24 18 29 38 22v24C64 9 27 4 27-40v-127H5v-23h24l9-43h21v43h35v23H59v120" id="x"/><path d="M100-194c62-1 85 37 85 99 1 63-27 99-86 99S16-35 15-95c0-66 28-99 85-99zM99-20c44 1 53-31 53-75 0-43-8-75-51-75s-53 32-53 75 10 74 51 75" id="y"/><g id="b"><use transform="matrix(0.05,0,0,0.05,0,0)" xlink:href="#t"/><use transform="matrix(0.05,0,0,0.05,12,0)" xlink:href="#u"/><use transform="matrix(0.05,0,0,0.05,22,0)" xlink:href="#u"/><use transform="matrix(0.05,0,0,0.05,32,0)" xlink:href="#v"/><use transform="matrix(0.05,0,0,0.05,35.95,0)" xlink:href="#q"/><use transform="matrix(0.05,0,0,0.05,39.900000000000006,0)" xlink:href="#w"/><use transform="matrix(0.05,0,0,0.05,48.900000000000006,0)" xlink:href="#n"/><use transform="matrix(0.05,0,0,0.05,58.900000000000006,0)" xlink:href="#x"/><use transform="matrix(0.05,0,0,0.05,63.900000000000006,0)" xlink:href="#q"/><use transform="matrix(0.05,0,0,0.05,67.85000000000001,0)" xlink:href="#y"/><use transform="matrix(0.05,0,0,0.05,77.85000000000001,0)" xlink:href="#r"/></g><path d="M30 0v-248h187v28H63v79h144v27H63v87h162V0H30" id="z"/><path d="M106-169C34-169 62-67 57 0H25v-261h32l-1 103c12-21 28-36 61-36 89 0 53 116 60 194h-32v-121c2-32-8-49-39-48" id="A"/><path d="M210-169c-67 3-38 105-44 169h-31v-121c0-29-5-50-35-48C34-165 62-65 56 0H25l-1-190h30c1 10-1 24 2 32 10-44 99-50 107 0 11-21 27-35 58-36 85-2 47 119 55 194h-31v-121c0-29-5-49-35-48" id="B"/><path d="M100-194c63 0 86 42 84 106H49c0 40 14 67 53 68 26 1 43-12 49-29l28 8c-11 28-37 45-77 45C44 4 14-33 15-96c1-61 26-98 85-98zm52 81c6-60-76-77-97-28-3 7-6 17-6 28h103" id="C"/><g id="c"><use transform="matrix(0.05,0,0,0.05,0,0)" xlink:href="#z"/><use transform="matrix(0.05,0,0,0.05,12,0)" xlink:href="#r"/><use transform="matrix(0.05,0,0,0.05,22,0)" xlink:href="#o"/><use transform="matrix(0.05,0,0,0.05,27.950000000000003,0)" xlink:href="#q"/><use transform="matrix(0.05,0,0,0.05,31.899999999999995,0)" xlink:href="#w"/><use transform="matrix(0.05,0,0,0.05,40.9,0)" xlink:href="#A"/><use transform="matrix(0.05,0,0,0.05,50.9,0)" xlink:href="#B"/><use transform="matrix(0.05,0,0,0.05,65.85,0)" xlink:href="#C"/><use transform="matrix(0.05,0,0,0.05,75.85,0)" xlink:href="#r"/><use transform="matrix(0.05,0,0,0.05,85.85,0)" xlink:href="#x"/></g><g id="d"><use transform="matrix(0.05,0,0,0.05,0,0)" xlink:href="#t"/><use transform="matrix(0.05,0,0,0.05,12,0)" xlink:href="#v"/><use transform="matrix(0.05,0,0,0.05,15.949999999999998,0)" xlink:href="#C"/><use transform="matrix(0.05,0,0,0.05,25.950000000000003,0)" xlink:href="#o"/><use transform="matrix(0.05,0,0,0.05,31.899999999999995,0)" xlink:href="#x"/><use transform="matrix(0.05,0,0,0.05,36.9,0)" xlink:href="#q"/><use transform="matrix(0.05,0,0,0.05,40.85,0)" xlink:href="#r"/><use transform="matrix(0.05,0,0,0.05,50.85,0)" xlink:href="#s"/></g><path d="M212-179c-10-28-35-45-73-45-59 0-87 40-87 99 0 60 29 101 89 101 43 0 62-24 78-52l27 14C228-24 195 4 139 4 59 4 22-46 18-125c-6-104 99-153 187-111 19 9 31 26 39 46" id="D"/><g id="e"><use transform="matrix(0.05,0,0,0.05,0,0)" xlink:href="#D"/><use transform="matrix(0.05,0,0,0.05,12.950000000000001,0)" xlink:href="#y"/><use transform="matrix(0.05,0,0,0.05,22.950000000000003,0)" xlink:href="#o"/><use transform="matrix(0.05,0,0,0.05,28.900000000000002,0)" xlink:href="#o"/><use transform="matrix(0.05,0,0,0.05,34.85,0)" xlink:href="#C"/><use transform="matrix(0.05,0,0,0.05,44.85,0)" xlink:href="#v"/><use transform="matrix(0.05,0,0,0.05,48.800000000000004,0)" xlink:href="#n"/><use transform="matrix(0.05,0,0,0.05,58.800000000000004,0)" xlink:href="#x"/><use transform="matrix(0.05,0,0,0.05,63.800000000000004,0)" xlink:href="#q"/><use transform="matrix(0.05,0,0,0.05,67.75,0)" xlink:href="#y"/><use transform="matrix(0.05,0,0,0.05,77.75,0)" xlink:href="#r"/></g><g id="f"><use transform="matrix(0.05,0,0,0.05,0,0)" xlink:href="#t"/><use transform="matrix(0.05,0,0,0.05,12,0)" xlink:href="#v"/><use transform="matrix(0.05,0,0,0.05,15.949999999999998,0)" xlink:href="#C"/><use transform="matrix(0.05,0,0,0.05,25.950000000000003,0)" xlink:href="#o"/><use transform="matrix(0.05,0,0,0.05,31.899999999999995,0)" xlink:href="#x"/><use transform="matrix(0.05,0,0,0.05,36.9,0)" xlink:href="#p"/></g><path d="M233-177c-1 41-23 64-60 70L243 0h-38l-65-103H63V0H30v-248c88 3 205-21 203 71zM63-129c60-2 137 13 137-47 0-61-80-42-137-45v92" id="E"/><g id="g"><use transform="matrix(0.05,0,0,0.05,0,0)" xlink:href="#E"/><use transform="matrix(0.05,0,0,0.05,12.950000000000001,0)" xlink:href="#C"/><use transform="matrix(0.05,0,0,0.05,22.950000000000003,0)" xlink:href="#p"/><use transform="matrix(0.05,0,0,0.05,31.950000000000003,0)" xlink:href="#u"/><use transform="matrix(0.05,0,0,0.05,41.95,0)" xlink:href="#y"/><use transform="matrix(0.05,0,0,0.05,51.95,0)" xlink:href="#r"/><use transform="matrix(0.05,0,0,0.05,61.95,0)" xlink:href="#p"/><use transform="matrix(0.05,0,0,0.05,70.95,0)" xlink:href="#C"/></g><path d="M30-248c118-7 216 8 213 122C240-48 200 0 122 0H30v-248zM63-27c89 8 146-16 146-99s-60-101-146-95v194" id="F"/><g id="h"><use transform="matrix(0.05,0,0,0.05,0,0)" xlink:href="#F"/><use transform="matrix(0.05,0,0,0.05,12.950000000000001,0)" xlink:href="#n"/><use transform="matrix(0.05,0,0,0.05,22.950000000000003,0)" xlink:href="#x"/><use transform="matrix(0.05,0,0,0.05,27.950000000000003,0)" xlink:href="#n"/></g><path d="M33 0v-248h34V0H33" id="G"/><g id="i"><use transform="matrix(0.05,0,0,0.05,0,0)" xlink:href="#G"/><use transform="matrix(0.05,0,0,0.05,5,0)" xlink:href="#r"/><use transform="matrix(0.05,0,0,0.05,15,0)" xlink:href="#s"/><use transform="matrix(0.05,0,0,0.05,25,0)" xlink:href="#C"/><use transform="matrix(0.05,0,0,0.05,35,0)" xlink:href="#p"/><use transform="matrix(0.05,0,0,0.05,44,0)" xlink:href="#x"/><use transform="matrix(0.05,0,0,0.05,49,0)" xlink:href="#q"/><use transform="matrix(0.05,0,0,0.05,52.95,0)" xlink:href="#y"/><use transform="matrix(0.05,0,0,0.05,62.95,0)" xlink:href="#r"/></g><g id="j"><use transform="matrix(0.05,0,0,0.05,0,0)" xlink:href="#G"/><use transform="matrix(0.05,0,0,0.05,5,0)" xlink:href="#r"/><use transform="matrix(0.05,0,0,0.05,15,0)" xlink:href="#x"/><use transform="matrix(0.05,0,0,0.05,20,0)" xlink:href="#C"/><use transform="matrix(0.05,0,0,0.05,30,0)" xlink:href="#o"/><use transform="matrix(0.05,0,0,0.05,35.95,0)" xlink:href="#r"/><use transform="matrix(0.05,0,0,0.05,45.95,0)" xlink:href="#n"/><use transform="matrix(0.05,0,0,0.05,55.95,0)" xlink:href="#v"/></g><path d="M179-190L93 31C79 59 56 82 12 73V49c39 6 53-20 64-50L1-190h34L92-34l54-156h33" id="H"/><g id="k"><use transform="matrix(0.05,0,0,0.05,0,0)" xlink:href="#p"/><use transform="matrix(0.05,0,0,0.05,9,0)" xlink:href="#H"/><use transform="matrix(0.05,0,0,0.05,18,0)" xlink:href="#p"/><use transform="matrix(0.05,0,0,0.05,27,0)" xlink:href="#x"/><use transform="matrix(0.05,0,0,0.05,32,0)" xlink:href="#C"/><use transform="matrix(0.05,0,0,0.05,42,0)" xlink:href="#B"/><use transform="matrix(0.05,0,0,0.05,56.95,0)" xlink:href="#p"/></g><path d="M85-194c31 0 48 13 60 33l-1-100h32l1 261h-30c-2-10 0-23-3-31C134-8 116 4 85 4 32 4 16-35 15-94c0-66 23-100 70-100zm9 24c-40 0-46 34-46 75 0 40 6 74 45 74 42 0 51-32 51-76 0-42-9-74-50-73" id="I"/><path d="M141 0L90-78 38 0H4l68-98-65-92h35l48 74 47-74h35l-64 92 68 98h-35" id="J"/><g id="l"><use transform="matrix(0.05,0,0,0.05,0,0)" xlink:href="#G"/><use transform="matrix(0.05,0,0,0.05,5,0)" xlink:href="#r"/><use transform="matrix(0.05,0,0,0.05,15,0)" xlink:href="#I"/><use transform="matrix(0.05,0,0,0.05,25,0)" xlink:href="#C"/><use transform="matrix(0.05,0,0,0.05,35,0)" xlink:href="#J"/><use transform="matrix(0.05,0,0,0.05,44,0)" xlink:href="#q"/><use transform="matrix(0.05,0,0,0.05,47.95,0)" xlink:href="#r"/><use transform="matrix(0.05,0,0,0.05,57.95,0)" xlink:href="#s"/></g></defs></g></svg>