<svg id="Layer_1" data-name="Layer 1" xmlns="http://www.w3.org/2000/svg" viewBox="0 0 600 250"><defs><style>.cls-1{fill:#fff;}.cls-2{fill:#646464;}.cls-3{fill:#969696;}</style></defs><path class="cls-1" d="M159.09,113.19,132,99.6l-16.25-8.12,0,0,0,0,16.05-8L155,95.07l6.35-3.88,3.3-2L131.77,72.69l-31.63,15.8,0,26.85L75.9,127.45l-2.59,1.27,0,5.94,4.83,2.42,26.58,13.33L121,158.53h0l0,0-16,8L81.69,154.94l-7.82,4.84-1.2.69-.63.39,32.89,16.44,26.84-13.4,26.82,13.4,31.6-15.78,0-5.94-30-15.07-17.62-8.8,0,0,0,0,16-8,23.22,11.63,6.27-3.83,3.38-2.09ZM88.9,131.67l16-8,22,11,0,11.12v4.89h0v0l-23.61-11.84-14.37-7.18,0,0Zm42.84-5.33-18.18-9.09h0l-3.84-1.94,0-11.22V99.3h0v0l23.67,11.88,14.31,7.15h0l.05,0Zm26.83,40.22-22-11V139.47l23.63,11.86,14.4,7.2h0l0,0Zm-18.7-60.32,16,8h0l0,0-5.45,2.7L109.72,96.6l0-2.17L113,92.78ZM78.08,134.45l-2.43-1.24,0-3L100.13,118l0,3.3,1.34.71.78.39h0l0,0ZM157.38,174h0v0L110,150.34,80.8,135.76h0l0,0L86.22,133l71.2,35.62,0,3.78Zm30.47-17,0,3-19.34,9.63-8.7,4.34v0l0,0,0-5.44,17.48-8.75h0l8.15-4.06ZM165,145.65l17.65,8.82,0,0,.05,0-5.45,2.7-40.71-20.38v-5.47Zm-7-24.34-18.21,9.08-1-.49-2.75-1.42-1.65-.83h0l0,0,16-8h0l8.14-4,.33.16,3.16,1.63,1.9,1h0l.05,0Zm23.64,11.29L169,126.21l-7.71-3.86h0l0,0,5.42-2.72,13.06,6.58,6.8,3.4h0l0,0Z"/><polygon class="cls-2" points="159.72 89.35 159.7 89.36 159.74 89.38 154.86 92.37 132.92 81.37 132.92 75.9 150.63 84.8 159.72 89.35"/><polygon class="cls-2" points="105.45 121.31 105.45 121.31 104.35 120.71 103.79 120.43 103.81 120.42 103.77 120.39 108.64 117.4 112.52 119.34 125.89 126.08 132.9 129.58 132.88 129.59 132.92 129.61 128.04 132.6 105.45 121.31"/><polygon class="cls-2" points="129.31 134.59 134.21 131.56 134.21 138.32 134.17 149.4 134.17 154.32 134.15 154.31 134.15 154.36 129.29 151.9 129.31 134.59"/><polygon class="cls-2" points="130.58 75.9 130.56 81.41 108.6 92.37 105.42 90.36 103.78 89.34 103.81 89.33 103.77 89.31 130.58 75.9"/><polygon class="cls-2" points="102.51 91.41 102.53 91.42 102.53 91.37 107.39 94.39 107.39 98.09 107.37 115.41 104.15 117.36 102.51 118.37 102.51 118.34 102.47 118.37 102.47 116.06 102.51 99.68 102.51 91.41"/><polygon class="cls-2" points="104.93 174.68 86.5 165.42 76.97 160.66 76.99 160.65 76.94 160.63 81.8 157.62 104.92 169.19 123.67 159.84 127.02 161.56 129.05 162.58 129.03 162.59 129.07 162.62 104.93 174.68"/><path class="cls-1" d="M237.07,158.69a11.55,11.55,0,0,0,3.32-4.06,12.18,12.18,0,0,0,1.17-5.44,9.72,9.72,0,0,0-2.52-6.88,17.27,17.27,0,0,0-6.2-4.19l-6.84-2.9a15,15,0,0,1-4.15-2.47,4.66,4.66,0,0,1-1.34-3.57,5,5,0,0,1,1.87-3.92,8.09,8.09,0,0,1,5.4-1.6,21,21,0,0,1,4.8.66,26.51,26.51,0,0,1,4.44,1.46,2.53,2.53,0,0,0,.68.16c.43,0,.72-.26.88-.82l1-3.07a3.45,3.45,0,0,0,.17-.67q0-.39-.75-.81a23.9,23.9,0,0,0-5.76-1.92,30.42,30.42,0,0,0-5.6-.53,20.44,20.44,0,0,0-5.56.75,14.77,14.77,0,0,0-4.67,2.18,11.17,11.17,0,0,0-3.22,3.61,10.23,10.23,0,0,0-1.22,5.05,9.5,9.5,0,0,0,2.53,6.83,17,17,0,0,0,6.46,4.15l5.88,2.28a17.31,17.31,0,0,1,4.85,2.78,5.24,5.24,0,0,1,1.78,4.14,5.79,5.79,0,0,1-2.36,4.89,10.14,10.14,0,0,1-6.23,1.77,18.83,18.83,0,0,1-5.11-.8,45.55,45.55,0,0,1-5.36-1.84,1.28,1.28,0,0,0-.48-.11c-.4,0-.7.28-.91.86l-1.14,3.15a1.11,1.11,0,0,0,.75,1.57,41.44,41.44,0,0,0,5.43,1.88,24.05,24.05,0,0,0,6.56.92,21.51,21.51,0,0,0,6.42-.92A15.77,15.77,0,0,0,237.07,158.69Z"/><path class="cls-1" d="M262.61,119.09h-4a1.47,1.47,0,0,0-1.67,1.67v38.78c0,1.19.55,1.76,1.67,1.76h4c1.07,0,1.59-.57,1.59-1.76V120.76C264.2,119.63,263.68,119.09,262.61,119.09Z"/><path class="cls-1" d="M256.11,108.66a3.71,3.71,0,0,0,1.33,3,4.57,4.57,0,0,0,3.06,1.13,4.79,4.79,0,0,0,3.11-1.13,3.69,3.69,0,0,0,1.38-3,3.74,3.74,0,0,0-1.38-3,4.82,4.82,0,0,0-3.11-1.11,4.67,4.67,0,0,0-3.06,1.11A3.78,3.78,0,0,0,256.11,108.66Z"/><path class="cls-1" d="M312,122.92a15.66,15.66,0,0,0-5.15-3.53,17.09,17.09,0,0,0-6.72-1.27,20.29,20.29,0,0,0-8.48,1.71,19.29,19.29,0,0,0-6.42,4.63,19.77,19.77,0,0,0-4.06,7,26.52,26.52,0,0,0-1.41,8.74,29.58,29.58,0,0,0,1.32,9.06,18.7,18.7,0,0,0,3.93,6.94,17.72,17.72,0,0,0,6.46,4.46,23.6,23.6,0,0,0,8.92,1.57c1,0,2.08-.05,3.24-.13a32.74,32.74,0,0,0,3.55-.48c1.18-.24,2.36-.5,3.5-.79a15.93,15.93,0,0,0,3.09-1.13,3.39,3.39,0,0,0,.86-.64.89.89,0,0,0,.07-.85l-1-3.25c-.11-.49-.33-.73-.67-.73a4.34,4.34,0,0,0-1.16.17,26.32,26.32,0,0,1-5.06,1.36,31.2,31.2,0,0,1-5.49.49,14.42,14.42,0,0,1-5.91-1.15,12.34,12.34,0,0,1-4.33-3.18,14.1,14.1,0,0,1-2.69-4.72,19.29,19.29,0,0,1-1-5.86v-.08h27c1.14,0,1.86-.15,2.13-.46a3,3,0,0,0,.42-1.92v-1.49a26.23,26.23,0,0,0-1.18-8A16.18,16.18,0,0,0,312,122.92Zm-2.23,13.36H287.61v-.09a17,17,0,0,1,1.19-4.71,14.31,14.31,0,0,1,2.42-4,11.15,11.15,0,0,1,3.67-2.74,11.62,11.62,0,0,1,4.91-1,10,10,0,0,1,4.37.93,9.34,9.34,0,0,1,3.15,2.43,10.19,10.19,0,0,1,1.85,3.59,15,15,0,0,1,.62,4.27Z"/><path class="cls-1" d="M391.07,123.52a11.5,11.5,0,0,0-4.36-3.91,15.39,15.39,0,0,0-7.24-1.49,23.1,23.1,0,0,0-7.69,1.36,20.72,20.72,0,0,0-6.91,4.06l-.07.06-.05-.08a10.53,10.53,0,0,0-4.7-4.09,16.39,16.39,0,0,0-6.64-1.31,19.18,19.18,0,0,0-7,1.36,20.1,20.1,0,0,0-6.25,3.89l-.13.11-.09-2.89c0-1-.55-1.5-1.68-1.5h-3.77c-1.07,0-1.59.54-1.59,1.67v38.78c0,1.19.52,1.76,1.59,1.76h4.13c1.06,0,1.58-.57,1.58-1.76l0-30.24a23.2,23.2,0,0,1,5.37-3.7,13.54,13.54,0,0,1,6.09-1.49,9,9,0,0,1,4.24.84,6.56,6.56,0,0,1,2.54,2.3,9.12,9.12,0,0,1,1.24,3.41,27.73,27.73,0,0,1,.31,4.23v24.65c0,1.19.54,1.76,1.67,1.76h4c1.07,0,1.59-.57,1.59-1.76V138c0-.7,0-1.52,0-2.46s-.07-1.85-.13-2.76-.13-1.76-.22-2.58-.19-1.43-.28-1.92a22,22,0,0,1,5.28-3,15.59,15.59,0,0,1,5.74-1.18,10.41,10.41,0,0,1,4.37.79,6.57,6.57,0,0,1,2.71,2.22,8.52,8.52,0,0,1,1.33,3.41,25.68,25.68,0,0,1,.35,4.36v24.65c0,1.19.55,1.76,1.67,1.76h4c1.07,0,1.59-.57,1.59-1.76V135.15a32.4,32.4,0,0,0-.61-6.56A15.29,15.29,0,0,0,391.07,123.52Z"/><path class="cls-1" d="M445.64,155.58a20.6,20.6,0,0,0,3.54-7,29.93,29.93,0,0,0,1.19-8.49,31.81,31.81,0,0,0-1.62-10.24,18.27,18.27,0,0,0-5-7.77,15.9,15.9,0,0,0-4.8-2.88,17.33,17.33,0,0,0-6.28-1,17.51,17.51,0,0,0-7.3,1.49,17.69,17.69,0,0,0-5.28,3.49l-.14.14V100.5c0-1-.43-1.41-1.32-1.41h-.18l-.55.08c-.32.06-.8.12-1.41.18s-1.49.17-2.58.35a1.51,1.51,0,0,0-1.05.53,2.66,2.66,0,0,0-.21,1.23v58.26a1.39,1.39,0,0,0,1.59,1.58h3.34c1.07,0,1.62-.43,1.67-1.32l.18-3.37.14.16a15.5,15.5,0,0,0,5.15,3.84,14.89,14.89,0,0,0,6.54,1.57,18.83,18.83,0,0,0,8.48-1.79A17,17,0,0,0,445.64,155.58Zm-3.58-9.14a15,15,0,0,1-2.16,5.07,10.93,10.93,0,0,1-3.85,3.49,12.19,12.19,0,0,1-11.57-.35,14,14,0,0,1-4.56-4.24l0-21a17.79,17.79,0,0,1,5.07-3.75,13.41,13.41,0,0,1,6.13-1.54,10.77,10.77,0,0,1,5.31,1.23,9.93,9.93,0,0,1,3.58,3.45,16.91,16.91,0,0,1,2,5.16,29.62,29.62,0,0,1,.66,6.46A26.73,26.73,0,0,1,442.06,146.44Z"/><path class="cls-1" d="M498.94,155.8a20,20,0,0,0,3.89-7,27.86,27.86,0,0,0,1.31-8.66,31.24,31.24,0,0,0-1.18-8.79,19.57,19.57,0,0,0-3.58-7,16.66,16.66,0,0,0-6.11-4.58,21.57,21.57,0,0,0-8.79-1.66,20.74,20.74,0,0,0-8.65,1.71,18.11,18.11,0,0,0-6.29,4.62,20,20,0,0,0-3.84,7,27.91,27.91,0,0,0-1.31,8.66,32.23,32.23,0,0,0,1.13,8.75,19.39,19.39,0,0,0,3.54,7,16.73,16.73,0,0,0,6.11,4.68,23.21,23.21,0,0,0,17.44,0A18.38,18.38,0,0,0,498.94,155.8Zm-9-.67a11.52,11.52,0,0,1-5.87,1.42,10.34,10.34,0,0,1-9.6-5.31,17.33,17.33,0,0,1-1.93-5.33,31.51,31.51,0,0,1-.58-6,27.4,27.4,0,0,1,.62-5.77,17,17,0,0,1,2-5.2,10.83,10.83,0,0,1,3.8-3.75,11.68,11.68,0,0,1,6-1.42,10.5,10.5,0,0,1,9.55,5.17,17,17,0,0,1,2,5.29,29.66,29.66,0,0,1,.61,6,27,27,0,0,1-.66,6,16.42,16.42,0,0,1-2.11,5.2A11.25,11.25,0,0,1,489.92,155.13Z"/><path class="cls-1" d="M526.68,99.09h-.21a4.4,4.4,0,0,0-.56.08c-.31.06-.79.12-1.41.18s-1.52.17-2.62.35a1.86,1.86,0,0,0-1,.45,2,2,0,0,0-.25,1.22v58.26c0,1.12.49,1.67,1.5,1.67h4.3c1,0,1.5-.57,1.5-1.76v-59C527.92,99.55,527.51,99.09,526.68,99.09Z"/><polygon class="cls-3" points="139.87 106.24 155.87 114.24 155.84 114.25 155.89 114.28 150.44 116.98 109.72 96.6 109.75 94.43 113.04 92.78 139.87 106.24"/><polygon class="cls-3" points="78.08 134.45 75.65 133.21 75.67 130.18 100.13 117.95 100.11 121.25 101.45 121.96 102.23 122.35 102.2 122.36 102.25 122.39 78.08 134.45"/><polygon class="cls-3" points="157.38 174.03 157.36 174.03 157.36 174.07 109.97 150.34 80.8 135.76 80.83 135.75 80.79 135.73 86.22 133.01 157.42 168.63 157.38 172.41 157.38 174.03"/><polygon class="cls-3" points="187.85 157.03 187.83 160.06 168.49 169.69 159.79 174.03 159.79 174.01 159.75 174.03 159.78 168.59 177.26 159.84 177.26 159.85 185.41 155.79 187.85 157.03"/><polygon class="cls-3" points="165.04 145.65 182.69 154.47 182.66 154.49 182.71 154.51 177.26 157.22 136.55 136.83 136.55 131.36 165.04 145.65"/><polygon class="cls-3" points="158.05 121.31 139.84 130.39 138.86 129.9 136.11 128.47 134.46 127.65 134.49 127.64 134.45 127.61 150.44 119.61 150.45 119.61 158.59 115.56 158.92 115.72 162.08 117.35 163.98 118.3 163.95 118.31 164 118.33 158.05 121.31"/><polygon class="cls-3" points="181.69 132.6 168.99 126.21 161.28 122.35 161.3 122.34 161.26 122.31 166.68 119.6 179.74 126.18 186.54 129.58 186.52 129.59 186.56 129.61 181.69 132.6"/></svg>