<svg id="Layer_1" data-name="Layer 1" xmlns="http://www.w3.org/2000/svg" viewBox="0 0 600 250"><defs><style>.cls-1{fill:#00aae1;}.cls-2{fill:#00458d;}</style></defs><path d="M188.1,154.47l-45.54-22.76,16-8,23.26,11.63,9.67-6-32.39-16.19-.54-.27h0L115.74,91.48l16-8L155,95.1l9.67-6L131.75,72.66,100.1,88.49v26.82L75.88,127.42l-2.61,1.3h0v6l4.83,2.42h0L121,158.53l-16,8L81.67,154.9l-.57.36h0l-7.25,4.48h0L72,160.88l32.94,16.46,26.82-13.41,26.83,13.41,31.64-15.82v-6l-2.14-1.07ZM159.72,89.35l-4.84,3L133,81.37V76Zm23,65.12-.68.34-4.73,2.37-40.69-20.35v-5.41Zm3.85-24.89-4.84,3-20.42-10.21,5.4-2.7Zm-28-14,.33.17L164,118.3l-5.95,3h0l-18.17,9.08-1-.49-4.41-2.21,16-8h0Zm-53.1,5.68h0l-1.68-.84,4.83-3,3.88,1.94h0l20.4,10.2-4.84,3Zm21.45,13.42v16l-38-19,16-8Zm4.83-8.39-18.17-9.08h0l-3.82-1.91v-16l38,19Zm24.12-12.06-.5.25-4.91,2.45L109.76,96.6V94.46L113,92.83ZM130.54,76v5.4l-21.93,11-4.84-3Zm-28,40.09V91.4l4.84,3v21l-4.84,3v-2.31ZM78.1,134.41l-2.41-1.2v-3l3-1.47h0L100.09,118v3.28l2.13,1.06Zm26.84,40.23-28-14,4.83-3,23.14,11.56,18.71-9.35,5.4,2.7Zm52.44-.61L80.8,135.76l5.42-2.7,71.16,35.57Zm-20.79-18.5v-16l38,19-16,8Zm51.22,4.5-28,14v-5.4l17.49-8.75h0l8.11-4.06,2.42,1.21Z"/><polygon class="cls-1" points="102.51 91.41 107.35 94.39 107.35 98.09 107.35 115.38 102.51 118.37 102.51 116.06 102.51 116.06 102.51 91.41"/><polygon class="cls-1" points="130.55 81.37 108.62 92.33 103.78 89.34 130.54 75.97 130.55 81.37"/><polygon class="cls-1" points="108.62 117.44 112.5 119.38 112.5 119.38 132.9 129.58 128.06 132.56 105.47 121.27 105.47 121.27 103.79 120.43 108.62 117.44"/><polygon class="cls-1" points="154.88 92.33 132.96 81.37 132.96 75.97 159.72 89.35 154.88 92.33"/><polygon class="cls-1" points="104.94 174.64 76.97 160.66 81.8 157.67 104.94 169.23 123.65 159.88 129.05 162.58 104.94 174.64"/><polygon class="cls-1" points="129.33 134.62 134.17 131.63 134.17 138.32 134.17 154.32 129.33 151.91 129.33 134.62"/><polygon class="cls-2" points="182.01 154.81 177.28 157.18 136.59 136.83 136.59 131.42 182.69 154.47 182.01 154.81"/><polygon class="cls-2" points="163.98 118.3 158.03 121.27 158.03 121.27 139.86 130.35 138.87 129.86 134.46 127.65 150.46 119.65 150.46 119.65 158.57 115.59 158.9 115.76 163.98 118.3"/><polygon class="cls-2" points="181.7 132.56 161.28 122.35 166.68 119.65 186.54 129.58 181.7 132.56"/><polygon class="cls-2" points="155.87 114.24 155.37 114.49 150.46 116.94 109.77 96.6 109.77 94.47 113.04 92.83 155.87 114.24"/><polygon class="cls-2" points="100.09 121.29 102.23 122.35 78.1 134.41 75.69 133.21 75.69 130.22 78.65 128.74 78.65 128.73 100.09 118.01 100.09 121.29"/><polygon class="cls-2" points="86.22 133.06 157.38 168.63 157.38 174.03 80.8 135.76 86.22 133.06"/><polygon class="cls-2" points="187.81 157.03 187.81 160.03 159.79 174.03 159.79 168.63 177.28 159.88 177.28 159.88 185.39 155.82 187.81 157.03"/><path d="M241.64,149.19a12.26,12.26,0,0,1-1.18,5.48,11.46,11.46,0,0,1-3.34,4.08,15.91,15.91,0,0,1-5.08,2.59,21.67,21.67,0,0,1-6.45.92,24.14,24.14,0,0,1-6.58-.92,40.58,40.58,0,0,1-5.44-1.89,1.18,1.18,0,0,1-.79-1.66l1.14-3.16c.29-.82.79-1.08,1.49-.79a49.42,49.42,0,0,0,5.35,1.84,18.83,18.83,0,0,0,5.09.79,10,10,0,0,0,6.19-1.76,5.71,5.71,0,0,0,2.32-4.82,5.12,5.12,0,0,0-1.76-4.08,17.05,17.05,0,0,0-4.82-2.77l-5.88-2.28a17.17,17.17,0,0,1-6.49-4.16,9.57,9.57,0,0,1-2.55-6.89,10.36,10.36,0,0,1,1.23-5.09,11.25,11.25,0,0,1,3.25-3.64,14.8,14.8,0,0,1,4.69-2.19,20.59,20.59,0,0,1,5.58-.75,30.44,30.44,0,0,1,5.61.53A23.86,23.86,0,0,1,239,120.5c.53.29.79.58.79.88a3.08,3.08,0,0,1-.17.7l-1,3.07q-.27.87-1,.87a2.64,2.64,0,0,1-.71-.17,26.15,26.15,0,0,0-4.43-1.45,20.73,20.73,0,0,0-4.78-.66,8,8,0,0,0-5.35,1.58,4.92,4.92,0,0,0-1.84,3.86,4.56,4.56,0,0,0,1.31,3.51,15,15,0,0,0,4.13,2.46l6.84,2.89a17.6,17.6,0,0,1,6.23,4.21A9.8,9.8,0,0,1,241.64,149.19Z"/><path d="M265.07,108.66a3.72,3.72,0,0,1-1.41,3.06,4.81,4.81,0,0,1-3.16,1.15,4.66,4.66,0,0,1-3.11-1.15,3.76,3.76,0,0,1-1.36-3.06,3.82,3.82,0,0,1,1.36-3.08,4.7,4.7,0,0,1,3.11-1.13,4.84,4.84,0,0,1,3.16,1.13A3.77,3.77,0,0,1,265.07,108.66Zm-.79,50.88c0,1.23-.56,1.84-1.67,1.84h-4c-1.17,0-1.75-.61-1.75-1.84V120.76a1.54,1.54,0,0,1,1.75-1.75h4c1.11,0,1.67.58,1.67,1.75Z"/><path d="M317.09,138.83a3.05,3.05,0,0,1-.44,2q-.43.48-2.19.48H287.53a19.41,19.41,0,0,0,1,5.84,14.2,14.2,0,0,0,2.68,4.69,12.29,12.29,0,0,0,4.3,3.16,14.25,14.25,0,0,0,5.88,1.14,31,31,0,0,0,5.48-.49,26.44,26.44,0,0,0,5-1.35,4.25,4.25,0,0,1,1.19-.18c.38,0,.63.26.74.79l1,3.25a.94.94,0,0,1-.09.92,3.49,3.49,0,0,1-.88.66,15.8,15.8,0,0,1-3.11,1.14c-1.14.29-2.31.55-3.51.79a31.77,31.77,0,0,1-3.55.48c-1.17.09-2.25.13-3.25.13a23.37,23.37,0,0,1-8.95-1.58,17.62,17.62,0,0,1-6.49-4.47,18.77,18.77,0,0,1-4-7,29.71,29.71,0,0,1-1.32-9.08,26.66,26.66,0,0,1,1.41-8.77,20,20,0,0,1,4.08-7,19.37,19.37,0,0,1,6.45-4.64,20.22,20.22,0,0,1,8.51-1.72,17.21,17.21,0,0,1,6.75,1.27,15.61,15.61,0,0,1,5.18,3.56,16.19,16.19,0,0,1,3.82,6.45,26.31,26.31,0,0,1,1.18,8Zm-7.37-2.63V135a14.48,14.48,0,0,0-.62-4.25,10,10,0,0,0-1.83-3.55,9.32,9.32,0,0,0-3.12-2.42,9.85,9.85,0,0,0-4.34-.92,11.34,11.34,0,0,0-4.87,1,10.87,10.87,0,0,0-3.64,2.72,14.2,14.2,0,0,0-2.42,3.95,17,17,0,0,0-1.18,4.69Z"/><path d="M393.77,159.54c0,1.23-.55,1.84-1.67,1.84h-4c-1.16,0-1.75-.61-1.75-1.84V134.89a25.39,25.39,0,0,0-.35-4.35,8.33,8.33,0,0,0-1.32-3.37A6.4,6.4,0,0,0,382,125a10.5,10.5,0,0,0-4.34-.78,15.44,15.44,0,0,0-5.71,1.18,21.85,21.85,0,0,0-5.26,2.94,11.59,11.59,0,0,1,.31,1.84c.09.82.16,1.68.22,2.59s.1,1.83.13,2.76,0,1.76,0,2.46v21.58c0,1.23-.55,1.84-1.67,1.84h-4c-1.17,0-1.75-.61-1.75-1.84V134.89a27.49,27.49,0,0,0-.31-4.22,8.92,8.92,0,0,0-1.23-3.37,6.47,6.47,0,0,0-2.5-2.28,9,9,0,0,0-4.21-.83,13.35,13.35,0,0,0-6.06,1.49,23,23,0,0,0-5.35,3.68v30.18c0,1.23-.56,1.84-1.66,1.84h-4.13c-1.11,0-1.67-.61-1.67-1.84V120.76c0-1.17.56-1.75,1.67-1.75h3.77c1.18,0,1.76.52,1.76,1.58l.09,2.72a20.32,20.32,0,0,1,6.27-3.91,19.34,19.34,0,0,1,7.06-1.36,16.31,16.31,0,0,1,6.67,1.32,10.47,10.47,0,0,1,4.74,4.12,20.74,20.74,0,0,1,6.93-4.08,23.27,23.27,0,0,1,7.72-1.36,15.54,15.54,0,0,1,7.28,1.49,11.61,11.61,0,0,1,4.39,4,15.63,15.63,0,0,1,2,5.09,32.53,32.53,0,0,1,.61,6.58Z"/><path d="M450.45,140.06a30,30,0,0,1-1.19,8.51,20.76,20.76,0,0,1-3.55,7.06,17.15,17.15,0,0,1-6,4.83,18.8,18.8,0,0,1-8.51,1.8,14.8,14.8,0,0,1-6.58-1.58,15.65,15.65,0,0,1-5.18-3.86L419.3,160c-.06.94-.64,1.4-1.75,1.4h-3.34a1.47,1.47,0,0,1-1.67-1.66V101.46a2.83,2.83,0,0,1,.22-1.27,1.57,1.57,0,0,1,1.1-.57c1.11-.18,2-.3,2.59-.35s1.08-.12,1.4-.18l.57-.08h.18c.93,0,1.4.49,1.4,1.49V123a18,18,0,0,1,5.31-3.51,19.09,19.09,0,0,1,13.64-.44,16.15,16.15,0,0,1,4.83,2.9,18.18,18.18,0,0,1,5,7.81A31.53,31.53,0,0,1,450.45,140.06Zm-7.81.35A29.37,29.37,0,0,0,442,134a16.58,16.58,0,0,0-2-5.14,9.77,9.77,0,0,0-3.55-3.42,10.61,10.61,0,0,0-5.27-1.22,13.37,13.37,0,0,0-6.09,1.53,17.41,17.41,0,0,0-5.05,3.73v21a14,14,0,0,0,4.52,4.17,12.11,12.11,0,0,0,11.49.35,10.76,10.76,0,0,0,3.82-3.46,14.67,14.67,0,0,0,2.15-5A26.7,26.7,0,0,0,442.64,140.41Z"/><path d="M504.22,140.15a27.8,27.8,0,0,1-1.31,8.69,19.93,19.93,0,0,1-3.91,7,18.2,18.2,0,0,1-6.36,4.7,20.81,20.81,0,0,1-8.68,1.71,21,21,0,0,1-8.82-1.71,16.69,16.69,0,0,1-6.14-4.7,19.26,19.26,0,0,1-3.55-7,31.83,31.83,0,0,1-1.14-8.78,27.74,27.74,0,0,1,1.31-8.68,20,20,0,0,1,3.86-7,18.09,18.09,0,0,1,6.32-4.64,20.66,20.66,0,0,1,8.68-1.72,21.52,21.52,0,0,1,8.82,1.67,16.57,16.57,0,0,1,6.14,4.6,19.51,19.51,0,0,1,3.6,7A31.43,31.43,0,0,1,504.22,140.15Zm-7.72.09a29.25,29.25,0,0,0-.61-6,16.75,16.75,0,0,0-2-5.27,10.37,10.37,0,0,0-9.48-5.13,11.61,11.61,0,0,0-6,1.4,10.77,10.77,0,0,0-3.77,3.73,16.8,16.8,0,0,0-2,5.18,27.21,27.21,0,0,0-.62,5.75,31.48,31.48,0,0,0,.58,6,16.89,16.89,0,0,0,1.92,5.3,10.64,10.64,0,0,0,3.69,3.82,10.81,10.81,0,0,0,5.84,1.45,11.49,11.49,0,0,0,5.83-1.4,11.28,11.28,0,0,0,3.86-3.69,16.4,16.4,0,0,0,2.11-5.18A27.28,27.28,0,0,0,496.5,140.24Z"/><path d="M528,159.54c0,1.23-.53,1.84-1.58,1.84h-4.3c-1,0-1.58-.58-1.58-1.75V101.37a2,2,0,0,1,.27-1.27,2,2,0,0,1,1.05-.48c1.11-.18,2-.3,2.63-.35s1.11-.12,1.4-.18a5.07,5.07,0,0,1,.58-.08h.21c.88,0,1.32.49,1.32,1.49Z"/></svg>