<svg xmlns="http://www.w3.org/2000/svg" xmlns:xlink="http://www.w3.org/1999/xlink" xmlns:lucid="lucid" width="1940" height="441"><g transform="translate(-820 -1540)" lucid:page-tab-id="0_0"><path d="M1040 1620h160v120h-160z" stroke="#000" stroke-width="2" fill="#fff"/><use xlink:href="#a" transform="matrix(1,0,0,1,1045,1625) translate(24.074999999999996 59.0875)"/><use xlink:href="#b" transform="matrix(1,0,0,1,1045,1625) translate(73.025 59.0875)"/><path d="M1260 1560h500v260h-500z" stroke="#000" stroke-width="2" fill="#fff"/><use xlink:href="#c" transform="matrix(1,0,0,1,1265,1565) translate(209.05 131.5875)"/><path d="M2060 1560h200v260h-200z" stroke="#000" stroke-width="2" fill="#fff"/><use xlink:href="#d" transform="matrix(1,0,0,1,2065,1565) translate(34.949999999999996 131.5875)"/><path d="M1280 1720h125v60h-125z" stroke="#000" stroke-width="2" fill="#fff"/><use xlink:href="#e" transform="matrix(1,0,0,1,1285,1725) translate(-3.8999999999999986 28.6)"/><path d="M1440 1720h120v60h-120z" stroke="#000" stroke-width="2" fill="#fff"/><use xlink:href="#f" transform="matrix(1,0,0,1,1445,1725) translate(15.049999999999997 30.025)"/><path d="M1595 1720h140v60h-140z" stroke="#000" stroke-width="2" fill="#fff"/><use xlink:href="#g" transform="matrix(1,0,0,1,1600,1725) translate(0.5749999999999886 30.025)"/><path d="M1920 1620l80 60-80 60-80-60z" stroke="#000" stroke-width="2" fill="#fff"/><use xlink:href="#h" transform="matrix(1,0,0,1,1845,1625) translate(18.07999999999999 59.0875)"/><use xlink:href="#i" transform="matrix(1,0,0,1,1845,1625) translate(60.029999999999994 59.0875)"/><path d="M2460 1620l80 60-80 60-80-60z" stroke="#000" stroke-width="2" fill="#fff"/><use xlink:href="#j" transform="matrix(1,0,0,1,2385,1625) translate(56.529999999999994 22.41)"/><use xlink:href="#k" transform="matrix(1,0,0,1,2385,1625) translate(14.954999999999993 54.41)"/><path d="M1202 1680h38.5" stroke="#000" stroke-width="2" fill="none"/><path d="M1202.03 1681H1201v-2h1.03z"/><path d="M1255.76 1680l-14.26 4.64v-9.27z" stroke="#000" stroke-width="2"/><path d="M1407 1750h13.5" stroke="#000" stroke-width="2" fill="none"/><path d="M1407.03 1751H1406v-2h1.03z"/><path d="M1435.76 1750l-14.26 4.64v-9.28z" stroke="#000" stroke-width="2"/><path d="M1562 1750h13.5" stroke="#000" stroke-width="2" fill="none"/><path d="M1562.03 1751H1561v-2h1.03z"/><path d="M1590.76 1750l-14.26 4.64v-9.28z" stroke="#000" stroke-width="2"/><path d="M1762 1680h57.83" stroke="#000" stroke-width="2" fill="none"/><path d="M1762.03 1681H1761v-2h1.03z"/><path d="M1835.1 1680l-14.27 4.64v-9.28z" stroke="#000" stroke-width="2"/><path d="M2002.67 1680h27.66v-.02h10.17" stroke="#000" stroke-width="2" fill="none"/><path d="M2002.7 1681h-2.37l1.34-1-1.34-1h2.36z"/><path d="M2055.76 1679.98l-14.26 4.64v-9.27z" stroke="#000" stroke-width="2"/><path d="M2262 1680h97.83" stroke="#000" stroke-width="2" fill="none"/><path d="M2262.03 1681H2261v-2h1.03z"/><path d="M2375.1 1680l-14.27 4.64v-9.28z" stroke="#000" stroke-width="2"/><path d="M2542.67 1680h37.83" stroke="#000" stroke-width="2" fill="none"/><path d="M2542.7 1681h-2.37l1.34-1-1.34-1h2.36z"/><path d="M2595.76 1680l-14.26 4.64v-9.28z" stroke="#000" stroke-width="2"/><path d="M1920 1742.25V1970h-410v-130.5" stroke="#000" stroke-width="2" fill="none"/><path d="M1921 1742.28h-2v-1.78l1 .75 1-.75z"/><path d="M1510 1824.24l4.64 14.26h-9.28z" stroke="#000" stroke-width="2"/><path d="M2458.33 1741v229H2160v-130.5" stroke="#000" stroke-width="2" fill="none"/><path d="M2459.33 1740.75v.28h-2v-1.78z"/><path d="M2160 1824.24l4.64 14.26h-9.28z" stroke="#000" stroke-width="2"/><path d="M982 1680h38.5" stroke="#000" stroke-width="2" fill="none"/><path d="M982.03 1681h-1.1l.07-1-.03-1h1.06z"/><path d="M1035.76 1680l-14.26 4.64v-9.28z" stroke="#000" stroke-width="2"/><path d="M2712 1640c15.46 0 28 17.9 28 40s-12.54 40-28 40h-84c-15.46 0-28-17.9-28-40s12.54-40 28-40z" stroke="#000" stroke-width="2" fill="#fff"/><use xlink:href="#l" transform="matrix(1,0,0,1,2605,1645) translate(8 38.4625)"/><use xlink:href="#m" transform="matrix(1,0,0,1,2605,1645) translate(67 38.4625)"/><path d="M952 1640c15.46 0 28 17.9 28 40s-12.54 40-28 40h-84c-15.46 0-28-17.9-28-40s12.54-40 28-40z" stroke="#000" stroke-width="2" fill="#fff"/><g><use xlink:href="#n" transform="matrix(1,0,0,1,845,1645) translate(11.024999999999999 38.4625)"/><use xlink:href="#o" transform="matrix(1,0,0,1,845,1645) translate(46.025 38.4625)"/></g><defs><path d="M160-131c35 5 61 23 61 61C221 17 115-2 30 0v-248c76 3 177-17 177 60 0 33-19 50-47 57zm-97-11c50-1 110 9 110-42 0-47-63-36-110-37v79zm0 115c55-2 124 14 124-45 0-56-70-42-124-44v89" id="p"/><path d="M141-36C126-15 110 5 73 4 37 3 15-17 15-53c-1-64 63-63 125-63 3-35-9-54-41-54-24 1-41 7-42 31l-33-3c5-37 33-52 76-52 45 0 72 20 72 64v82c-1 20 7 32 28 27v20c-31 9-61-2-59-35zM48-53c0 20 12 33 32 33 41-3 63-29 60-74-43 2-92-5-92 41" id="q"/><path d="M135-143c-3-34-86-38-87 0 15 53 115 12 119 90S17 21 10-45l28-5c4 36 97 45 98 0-10-56-113-15-118-90-4-57 82-63 122-42 12 7 21 19 24 35" id="r"/><path d="M24-231v-30h32v30H24zM24 0v-190h32V0H24" id="s"/><path d="M96-169c-40 0-48 33-48 73s9 75 48 75c24 0 41-14 43-38l32 2c-6 37-31 61-74 61-59 0-76-41-82-99-10-93 101-131 147-64 4 7 5 14 7 22l-32 3c-4-21-16-35-41-35" id="t"/><g id="a"><use transform="matrix(0.05,0,0,0.05,0,0)" xlink:href="#p"/><use transform="matrix(0.05,0,0,0.05,12,0)" xlink:href="#q"/><use transform="matrix(0.05,0,0,0.05,22,0)" xlink:href="#r"/><use transform="matrix(0.05,0,0,0.05,31,0)" xlink:href="#s"/><use transform="matrix(0.05,0,0,0.05,34.95,0)" xlink:href="#t"/></g><path d="M30-248c87 1 191-15 191 75 0 78-77 80-158 76V0H30v-248zm33 125c57 0 124 11 124-50 0-59-68-47-124-48v98" id="u"/><path d="M114-163C36-179 61-72 57 0H25l-1-190h30c1 12-1 29 2 39 6-27 23-49 58-41v29" id="v"/><path d="M100-194c63 0 86 42 84 106H49c0 40 14 67 53 68 26 1 43-12 49-29l28 8c-11 28-37 45-77 45C44 4 14-33 15-96c1-61 26-98 85-98zm52 81c6-60-76-77-97-28-3 7-6 17-6 28h103" id="w"/><g id="b"><use transform="matrix(0.05,0,0,0.05,0,0)" xlink:href="#u"/><use transform="matrix(0.05,0,0,0.05,12,0)" xlink:href="#q"/><use transform="matrix(0.05,0,0,0.05,22,0)" xlink:href="#v"/><use transform="matrix(0.05,0,0,0.05,27.950000000000003,0)" xlink:href="#r"/><use transform="matrix(0.05,0,0,0.05,36.95,0)" xlink:href="#w"/><use transform="matrix(0.05,0,0,0.05,46.95,0)" xlink:href="#v"/></g><path d="M30 0v-248h187v28H63v79h144v27H63v87h162V0H30" id="x"/><path d="M141 0L90-78 38 0H4l68-98-65-92h35l48 74 47-74h35l-64 92 68 98h-35" id="y"/><path d="M59-47c-2 24 18 29 38 22v24C64 9 27 4 27-40v-127H5v-23h24l9-43h21v43h35v23H59v120" id="z"/><path d="M100-194c62-1 85 37 85 99 1 63-27 99-86 99S16-35 15-95c0-66 28-99 85-99zM99-20c44 1 53-31 53-75 0-43-8-75-51-75s-53 32-53 75 10 74 51 75" id="A"/><g id="c"><use transform="matrix(0.05,0,0,0.05,0,0)" xlink:href="#x"/><use transform="matrix(0.05,0,0,0.05,12,0)" xlink:href="#y"/><use transform="matrix(0.05,0,0,0.05,21,0)" xlink:href="#z"/><use transform="matrix(0.05,0,0,0.05,26,0)" xlink:href="#v"/><use transform="matrix(0.05,0,0,0.05,31.950000000000003,0)" xlink:href="#q"/><use transform="matrix(0.05,0,0,0.05,41.95,0)" xlink:href="#t"/><use transform="matrix(0.05,0,0,0.05,50.95,0)" xlink:href="#z"/><use transform="matrix(0.05,0,0,0.05,55.95,0)" xlink:href="#A"/><use transform="matrix(0.05,0,0,0.05,65.95,0)" xlink:href="#v"/></g><path d="M127-220V0H93v-220H8v-28h204v28h-85" id="B"/><path d="M117-194c89-4 53 116 60 194h-32v-121c0-31-8-49-39-48C34-167 62-67 57 0H25l-1-190h30c1 10-1 24 2 32 11-22 29-35 61-36" id="C"/><path d="M101-234c-31-9-42 10-38 44h38v23H63V0H32v-167H5v-23h27c-7-52 17-82 69-68v24" id="D"/><path d="M210-169c-67 3-38 105-44 169h-31v-121c0-29-5-50-35-48C34-165 62-65 56 0H25l-1-190h30c1 10-1 24 2 32 10-44 99-50 107 0 11-21 27-35 58-36 85-2 47 119 55 194h-31v-121c0-29-5-49-35-48" id="E"/><g id="d"><use transform="matrix(0.05,0,0,0.05,0,0)" xlink:href="#B"/><use transform="matrix(0.05,0,0,0.05,10.3,0)" xlink:href="#v"/><use transform="matrix(0.05,0,0,0.05,16.25,0)" xlink:href="#q"/><use transform="matrix(0.05,0,0,0.05,26.25,0)" xlink:href="#C"/><use transform="matrix(0.05,0,0,0.05,36.25,0)" xlink:href="#r"/><use transform="matrix(0.05,0,0,0.05,45.25,0)" xlink:href="#D"/><use transform="matrix(0.05,0,0,0.05,50.25,0)" xlink:href="#A"/><use transform="matrix(0.05,0,0,0.05,60.25,0)" xlink:href="#v"/><use transform="matrix(0.05,0,0,0.05,66.2,0)" xlink:href="#E"/><use transform="matrix(0.05,0,0,0.05,81.15,0)" xlink:href="#q"/><use transform="matrix(0.05,0,0,0.05,91.15,0)" xlink:href="#z"/><use transform="matrix(0.05,0,0,0.05,96.15,0)" xlink:href="#s"/><use transform="matrix(0.05,0,0,0.05,100.10000000000001,0)" xlink:href="#A"/><use transform="matrix(0.05,0,0,0.05,110.10000000000001,0)" xlink:href="#C"/></g><path d="M16-82v-28h88v28H16" id="F"/><path d="M177-190C167-65 218 103 67 71c-23-6-38-20-44-43l32-5c15 47 100 32 89-28v-30C133-14 115 1 83 1 29 1 15-40 15-95c0-56 16-97 71-98 29-1 48 16 59 35 1-10 0-23 2-32h30zM94-22c36 0 50-32 50-73 0-42-14-75-50-75-39 0-46 34-46 75s6 73 46 73" id="G"/><g id="e"><use transform="matrix(0.05,0,0,0.05,0,0)" xlink:href="#u"/><use transform="matrix(0.05,0,0,0.05,12,0)" xlink:href="#v"/><use transform="matrix(0.05,0,0,0.05,17.95,0)" xlink:href="#w"/><use transform="matrix(0.05,0,0,0.05,27.950000000000003,0)" xlink:href="#F"/><use transform="matrix(0.05,0,0,0.05,33.9,0)" xlink:href="#u"/><use transform="matrix(0.05,0,0,0.05,45.9,0)" xlink:href="#v"/><use transform="matrix(0.05,0,0,0.05,51.85,0)" xlink:href="#A"/><use transform="matrix(0.05,0,0,0.05,61.85,0)" xlink:href="#t"/><use transform="matrix(0.05,0,0,0.05,70.85,0)" xlink:href="#w"/><use transform="matrix(0.05,0,0,0.05,80.85,0)" xlink:href="#r"/><use transform="matrix(0.05,0,0,0.05,89.85,0)" xlink:href="#r"/><use transform="matrix(0.05,0,0,0.05,98.85,0)" xlink:href="#s"/><use transform="matrix(0.05,0,0,0.05,102.80000000000001,0)" xlink:href="#C"/><use transform="matrix(0.05,0,0,0.05,112.80000000000001,0)" xlink:href="#G"/></g><g id="f"><use transform="matrix(0.05,0,0,0.05,0,0)" xlink:href="#x"/><use transform="matrix(0.05,0,0,0.05,12,0)" xlink:href="#y"/><use transform="matrix(0.05,0,0,0.05,21,0)" xlink:href="#z"/><use transform="matrix(0.05,0,0,0.05,26,0)" xlink:href="#v"/><use transform="matrix(0.05,0,0,0.05,31.950000000000003,0)" xlink:href="#q"/><use transform="matrix(0.05,0,0,0.05,41.95,0)" xlink:href="#t"/><use transform="matrix(0.05,0,0,0.05,50.95,0)" xlink:href="#z"/><use transform="matrix(0.05,0,0,0.05,55.95,0)" xlink:href="#s"/><use transform="matrix(0.05,0,0,0.05,59.900000000000006,0)" xlink:href="#A"/><use transform="matrix(0.05,0,0,0.05,69.9,0)" xlink:href="#C"/></g><path d="M115-194c55 1 70 41 70 98S169 2 115 4C84 4 66-9 55-30l1 105H24l-1-265h31l2 30c10-21 28-34 59-34zm-8 174c40 0 45-34 45-75s-6-73-45-74c-42 0-51 32-51 76 0 43 10 73 51 73" id="H"/><g id="g"><use transform="matrix(0.05,0,0,0.05,0,0)" xlink:href="#u"/><use transform="matrix(0.05,0,0,0.05,12,0)" xlink:href="#A"/><use transform="matrix(0.05,0,0,0.05,22,0)" xlink:href="#r"/><use transform="matrix(0.05,0,0,0.05,31,0)" xlink:href="#z"/><use transform="matrix(0.05,0,0,0.05,36,0)" xlink:href="#F"/><use transform="matrix(0.05,0,0,0.05,41.95,0)" xlink:href="#H"/><use transform="matrix(0.05,0,0,0.05,51.95,0)" xlink:href="#v"/><use transform="matrix(0.05,0,0,0.05,57.900000000000006,0)" xlink:href="#A"/><use transform="matrix(0.05,0,0,0.05,67.9,0)" xlink:href="#t"/><use transform="matrix(0.05,0,0,0.05,76.9,0)" xlink:href="#w"/><use transform="matrix(0.05,0,0,0.05,86.9,0)" xlink:href="#r"/><use transform="matrix(0.05,0,0,0.05,95.9,0)" xlink:href="#r"/><use transform="matrix(0.05,0,0,0.05,104.9,0)" xlink:href="#s"/><use transform="matrix(0.05,0,0,0.05,108.85000000000001,0)" xlink:href="#C"/><use transform="matrix(0.05,0,0,0.05,118.85000000000001,0)" xlink:href="#G"/></g><path d="M190 0L58-211 59 0H30v-248h39L202-35l-2-213h31V0h-41" id="I"/><g id="h"><use transform="matrix(0.05,0,0,0.05,0,0)" xlink:href="#I"/><use transform="matrix(0.05,0,0,0.05,12.950000000000001,0)" xlink:href="#w"/><use transform="matrix(0.05,0,0,0.05,22.950000000000003,0)" xlink:href="#y"/><use transform="matrix(0.05,0,0,0.05,31.950000000000003,0)" xlink:href="#z"/></g><g id="i"><use transform="matrix(0.05,0,0,0.05,0,0)" xlink:href="#x"/><use transform="matrix(0.05,0,0,0.05,12,0)" xlink:href="#y"/><use transform="matrix(0.05,0,0,0.05,21,0)" xlink:href="#z"/><use transform="matrix(0.05,0,0,0.05,26,0)" xlink:href="#v"/><use transform="matrix(0.05,0,0,0.05,31.950000000000003,0)" xlink:href="#q"/><use transform="matrix(0.05,0,0,0.05,41.95,0)" xlink:href="#t"/><use transform="matrix(0.05,0,0,0.05,50.95,0)" xlink:href="#z"/><use transform="matrix(0.05,0,0,0.05,55.95,0)" xlink:href="#A"/><use transform="matrix(0.05,0,0,0.05,65.95,0)" xlink:href="#v"/></g><g id="j"><use transform="matrix(0.05,0,0,0.05,0,0)" xlink:href="#I"/><use transform="matrix(0.05,0,0,0.05,12.950000000000001,0)" xlink:href="#w"/><use transform="matrix(0.05,0,0,0.05,22.950000000000003,0)" xlink:href="#y"/><use transform="matrix(0.05,0,0,0.05,31.950000000000003,0)" xlink:href="#z"/></g><g id="k"><use transform="matrix(0.05,0,0,0.05,0,0)" xlink:href="#B"/><use transform="matrix(0.05,0,0,0.05,10.3,0)" xlink:href="#v"/><use transform="matrix(0.05,0,0,0.05,16.25,0)" xlink:href="#q"/><use transform="matrix(0.05,0,0,0.05,26.25,0)" xlink:href="#C"/><use transform="matrix(0.05,0,0,0.05,36.25,0)" xlink:href="#r"/><use transform="matrix(0.05,0,0,0.05,45.25,0)" xlink:href="#D"/><use transform="matrix(0.05,0,0,0.05,50.25,0)" xlink:href="#A"/><use transform="matrix(0.05,0,0,0.05,60.25,0)" xlink:href="#v"/><use transform="matrix(0.05,0,0,0.05,66.2,0)" xlink:href="#E"/><use transform="matrix(0.05,0,0,0.05,81.15,0)" xlink:href="#q"/><use transform="matrix(0.05,0,0,0.05,91.15,0)" xlink:href="#z"/><use transform="matrix(0.05,0,0,0.05,96.15,0)" xlink:href="#s"/><use transform="matrix(0.05,0,0,0.05,100.10000000000001,0)" xlink:href="#A"/><use transform="matrix(0.05,0,0,0.05,110.10000000000001,0)" xlink:href="#C"/></g><path d="M140-251c81 0 123 46 123 126C263-46 219 4 140 4 59 4 17-45 17-125s42-126 123-126zm0 227c63 0 89-41 89-101s-29-99-89-99c-61 0-89 39-89 99S79-25 140-24" id="J"/><path d="M84 4C-5 8 30-112 23-190h32v120c0 31 7 50 39 49 72-2 45-101 50-169h31l1 190h-30c-1-10 1-25-2-33-11 22-28 36-60 37" id="K"/><g id="l"><use transform="matrix(0.05,0,0,0.05,0,0)" xlink:href="#J"/><use transform="matrix(0.05,0,0,0.05,14,0)" xlink:href="#K"/><use transform="matrix(0.05,0,0,0.05,24,0)" xlink:href="#z"/><use transform="matrix(0.05,0,0,0.05,29,0)" xlink:href="#H"/><use transform="matrix(0.05,0,0,0.05,39,0)" xlink:href="#K"/><use transform="matrix(0.05,0,0,0.05,49,0)" xlink:href="#z"/></g><path d="M108 0H70L1-190h34L89-25l56-165h34" id="L"/><g id="m"><use transform="matrix(0.05,0,0,0.05,0,0)" xlink:href="#x"/><use transform="matrix(0.05,0,0,0.05,12,0)" xlink:href="#L"/><use transform="matrix(0.05,0,0,0.05,21,0)" xlink:href="#w"/><use transform="matrix(0.05,0,0,0.05,31,0)" xlink:href="#C"/><use transform="matrix(0.05,0,0,0.05,41,0)" xlink:href="#z"/><use transform="matrix(0.05,0,0,0.05,46,0)" xlink:href="#r"/></g><path d="M30 0v-248h33v221h125V0H30" id="M"/><g id="n"><use transform="matrix(0.05,0,0,0.05,0,0)" xlink:href="#M"/><use transform="matrix(0.05,0,0,0.05,10,0)" xlink:href="#A"/><use transform="matrix(0.05,0,0,0.05,20,0)" xlink:href="#G"/></g><path d="M240 0l2-218c-23 76-54 145-80 218h-23L58-218 59 0H30v-248h44l77 211c21-75 51-140 76-211h43V0h-30" id="N"/><g id="o"><use transform="matrix(0.05,0,0,0.05,0,0)" xlink:href="#N"/><use transform="matrix(0.05,0,0,0.05,14.950000000000001,0)" xlink:href="#w"/><use transform="matrix(0.05,0,0,0.05,24.950000000000003,0)" xlink:href="#r"/><use transform="matrix(0.05,0,0,0.05,33.95,0)" xlink:href="#r"/><use transform="matrix(0.05,0,0,0.05,42.95,0)" xlink:href="#q"/><use transform="matrix(0.05,0,0,0.05,52.95,0)" xlink:href="#G"/><use transform="matrix(0.05,0,0,0.05,62.95,0)" xlink:href="#w"/></g></defs></g></svg>