<svg xmlns="http://www.w3.org/2000/svg" xmlns:xlink="http://www.w3.org/1999/xlink" xmlns:lucid="lucid" width="1260" height="520"><g transform="translate(-920 -1560)" lucid:page-tab-id="0_0"><path d="M1068 1600c17.67 0 32 17.9 32 40s-14.33 40-32 40h-96c-17.67 0-32-17.9-32-40s14.33-40 32-40z" stroke="#000" stroke-width="2" fill="#fff"/><use xlink:href="#a" transform="matrix(1,0,0,1,945,1605) translate(21.025 38.4625)"/><use xlink:href="#b" transform="matrix(1,0,0,1,945,1605) translate(56.025 38.4625)"/><path d="M1168 1580h160v120h-160z" stroke="#000" stroke-width="2" fill="#fff"/><use xlink:href="#c" transform="matrix(1,0,0,1,1173,1585) translate(19.099999999999994 59.0875)"/><use xlink:href="#d" transform="matrix(1,0,0,1,1173,1585) translate(78 59.0875)"/><path d="M1500 1580l80 60-80 60-80-60z" stroke="#000" stroke-width="2" fill="#fff"/><use xlink:href="#e" transform="matrix(1,0,0,1,1425,1585) translate(25.104999999999997 59.0875)"/><use xlink:href="#f" transform="matrix(1,0,0,1,1425,1585) translate(92.00500000000001 59.0875)"/><path d="M1700 1580h160v120h-160z" stroke="#000" stroke-width="2" fill="#fff"/><use xlink:href="#g" transform="matrix(1,0,0,1,1705,1585) translate(20.074999999999996 59.0875)"/><use xlink:href="#h" transform="matrix(1,0,0,1,1705,1585) translate(79.025 59.0875)"/><path d="M1700 1760h160v120h-160z" stroke="#000" stroke-width="2" fill="#fff"/><use xlink:href="#i" transform="matrix(1,0,0,1,1705,1765) translate(41.05 59.0875)"/><use xlink:href="#j" transform="matrix(1,0,0,1,1705,1765) translate(98.95 59.0875)"/><path d="M1700 1940h160v120h-160z" stroke="#000" stroke-width="2" fill="#fff"/><use xlink:href="#i" transform="matrix(1,0,0,1,1705,1945) translate(39.574999999999996 59.0875)"/><use xlink:href="#k" transform="matrix(1,0,0,1,1705,1945) translate(97.475 59.0875)"/><path d="M2128 1600c17.67 0 32 17.9 32 40s-14.33 40-32 40h-96c-17.67 0-32-17.9-32-40s14.33-40 32-40z" stroke="#000" stroke-width="2" fill="#fff"/><use xlink:href="#g" transform="matrix(1,0,0,1,2005,1605) translate(20.074999999999996 27.525)"/><use xlink:href="#l" transform="matrix(1,0,0,1,2005,1605) translate(79.025 27.525)"/><use xlink:href="#m" transform="matrix(1,0,0,1,2005,1605) translate(4.025000000000006 49.125)"/><use xlink:href="#n" transform="matrix(1,0,0,1,2005,1605) translate(62.97500000000001 49.125)"/><use xlink:href="#o" transform="matrix(1,0,0,1,2005,1605) translate(101.97500000000001 49.125)"/><path d="M2128 1780c17.67 0 32 17.9 32 40s-14.33 40-32 40h-96c-17.67 0-32-17.9-32-40s14.33-40 32-40z" stroke="#000" stroke-width="2" fill="#fff"/><use xlink:href="#i" transform="matrix(1,0,0,1,2005,1785) translate(11.574999999999996 27.525)"/><use xlink:href="#p" transform="matrix(1,0,0,1,2005,1785) translate(69.475 27.525)"/><use xlink:href="#q" transform="matrix(1,0,0,1,2005,1785) translate(84.475 27.525)"/><use xlink:href="#n" transform="matrix(1,0,0,1,2005,1785) translate(33.5 49.125)"/><use xlink:href="#o" transform="matrix(1,0,0,1,2005,1785) translate(72.5 49.125)"/><path d="M2128 1960c17.67 0 32 17.9 32 40s-14.33 40-32 40h-96c-17.67 0-32-17.9-32-40s14.33-40 32-40z" stroke="#000" stroke-width="2" fill="#fff"/><use xlink:href="#i" transform="matrix(1,0,0,1,2005,1965) translate(10.099999999999994 27.525)"/><use xlink:href="#r" transform="matrix(1,0,0,1,2005,1965) translate(68 27.525)"/><use xlink:href="#q" transform="matrix(1,0,0,1,2005,1965) translate(85.95 27.525)"/><use xlink:href="#n" transform="matrix(1,0,0,1,2005,1965) translate(33.5 49.125)"/><use xlink:href="#o" transform="matrix(1,0,0,1,2005,1965) translate(72.5 49.125)"/><path d="M1102 1640h46.5" stroke="#000" stroke-width="2" fill="none"/><path d="M1102.03 1641h-1.1l.07-1-.03-1h1.06z"/><path d="M1163.76 1640l-14.26 4.64v-9.28z" stroke="#000" stroke-width="2"/><path d="M1330 1640h69.83" stroke="#000" stroke-width="2" fill="none"/><path d="M1330.03 1641H1329v-2h1.03z"/><path d="M1415.1 1640l-14.27 4.64v-9.28z" stroke="#000" stroke-width="2"/><path d="M1582.67 1640h97.83" stroke="#000" stroke-width="2" fill="none"/><path d="M1582.7 1641h-2.37l1.34-1-1.34-1h2.36z"/><path d="M1695.76 1640l-14.26 4.64v-9.28z" stroke="#000" stroke-width="2"/><path d="M1500 1702.25V1820h180.5" stroke="#000" stroke-width="2" fill="none"/><path d="M1501 1702.28h-2v-1.78l1 .75 1-.75z"/><path d="M1695.76 1820l-14.26 4.64v-9.28z" stroke="#000" stroke-width="2"/><path d="M1500 1820.8V2000h180.5M1500 1820.83v-1.03" stroke="#000" stroke-width="2" fill="none"/><path d="M1695.76 2000l-14.26 4.64v-9.28z" stroke="#000" stroke-width="2"/><path d="M1862 2000h118.5" stroke="#000" stroke-width="2" fill="none"/><path d="M1862.03 2001H1861v-2h1.03z"/><path d="M1995.76 2000l-14.26 4.64v-9.28z" stroke="#000" stroke-width="2"/><path d="M1862 1820h118.5" stroke="#000" stroke-width="2" fill="none"/><path d="M1862.03 1821H1861v-2h1.03z"/><path d="M1995.76 1820l-14.26 4.64v-9.28z" stroke="#000" stroke-width="2"/><path d="M1862 1640h118.5" stroke="#000" stroke-width="2" fill="none"/><path d="M1862.03 1641H1861v-2h1.03z"/><path d="M1995.76 1640l-14.26 4.64v-9.28z" stroke="#000" stroke-width="2"/><defs><path d="M30 0v-248h33v221h125V0H30" id="s"/><path d="M100-194c62-1 85 37 85 99 1 63-27 99-86 99S16-35 15-95c0-66 28-99 85-99zM99-20c44 1 53-31 53-75 0-43-8-75-51-75s-53 32-53 75 10 74 51 75" id="t"/><path d="M177-190C167-65 218 103 67 71c-23-6-38-20-44-43l32-5c15 47 100 32 89-28v-30C133-14 115 1 83 1 29 1 15-40 15-95c0-56 16-97 71-98 29-1 48 16 59 35 1-10 0-23 2-32h30zM94-22c36 0 50-32 50-73 0-42-14-75-50-75-39 0-46 34-46 75s6 73 46 73" id="u"/><g id="a"><use transform="matrix(0.05,0,0,0.05,0,0)" xlink:href="#s"/><use transform="matrix(0.05,0,0,0.05,10,0)" xlink:href="#t"/><use transform="matrix(0.05,0,0,0.05,20,0)" xlink:href="#u"/></g><path d="M240 0l2-218c-23 76-54 145-80 218h-23L58-218 59 0H30v-248h44l77 211c21-75 51-140 76-211h43V0h-30" id="v"/><path d="M100-194c63 0 86 42 84 106H49c0 40 14 67 53 68 26 1 43-12 49-29l28 8c-11 28-37 45-77 45C44 4 14-33 15-96c1-61 26-98 85-98zm52 81c6-60-76-77-97-28-3 7-6 17-6 28h103" id="w"/><path d="M135-143c-3-34-86-38-87 0 15 53 115 12 119 90S17 21 10-45l28-5c4 36 97 45 98 0-10-56-113-15-118-90-4-57 82-63 122-42 12 7 21 19 24 35" id="x"/><path d="M141-36C126-15 110 5 73 4 37 3 15-17 15-53c-1-64 63-63 125-63 3-35-9-54-41-54-24 1-41 7-42 31l-33-3c5-37 33-52 76-52 45 0 72 20 72 64v82c-1 20 7 32 28 27v20c-31 9-61-2-59-35zM48-53c0 20 12 33 32 33 41-3 63-29 60-74-43 2-92-5-92 41" id="y"/><g id="b"><use transform="matrix(0.05,0,0,0.05,0,0)" xlink:href="#v"/><use transform="matrix(0.05,0,0,0.05,14.950000000000001,0)" xlink:href="#w"/><use transform="matrix(0.05,0,0,0.05,24.950000000000003,0)" xlink:href="#x"/><use transform="matrix(0.05,0,0,0.05,33.95,0)" xlink:href="#x"/><use transform="matrix(0.05,0,0,0.05,42.95,0)" xlink:href="#y"/><use transform="matrix(0.05,0,0,0.05,52.95,0)" xlink:href="#u"/><use transform="matrix(0.05,0,0,0.05,62.95,0)" xlink:href="#w"/></g><path d="M233-177c-1 41-23 64-60 70L243 0h-38l-65-103H63V0H30v-248c88 3 205-21 203 71zM63-129c60-2 137 13 137-47 0-61-80-42-137-45v92" id="z"/><path d="M84 4C-5 8 30-112 23-190h32v120c0 31 7 50 39 49 72-2 45-101 50-169h31l1 190h-30c-1-10 1-25-2-33-11 22-28 36-60 37" id="A"/><path d="M59-47c-2 24 18 29 38 22v24C64 9 27 4 27-40v-127H5v-23h24l9-43h21v43h35v23H59v120" id="B"/><path d="M114-163C36-179 61-72 57 0H25l-1-190h30c1 12-1 29 2 39 6-27 23-49 58-41v29" id="C"/><g id="c"><use transform="matrix(0.05,0,0,0.05,0,0)" xlink:href="#z"/><use transform="matrix(0.05,0,0,0.05,12.950000000000001,0)" xlink:href="#t"/><use transform="matrix(0.05,0,0,0.05,22.950000000000003,0)" xlink:href="#A"/><use transform="matrix(0.05,0,0,0.05,32.95,0)" xlink:href="#B"/><use transform="matrix(0.05,0,0,0.05,37.95,0)" xlink:href="#w"/><use transform="matrix(0.05,0,0,0.05,47.95,0)" xlink:href="#C"/></g><path d="M30-248c87 1 191-15 191 75 0 78-77 80-158 76V0H30v-248zm33 125c57 0 124 11 124-50 0-59-68-47-124-48v98" id="D"/><g id="d"><use transform="matrix(0.05,0,0,0.05,0,0)" xlink:href="#D"/><use transform="matrix(0.05,0,0,0.05,12,0)" xlink:href="#y"/><use transform="matrix(0.05,0,0,0.05,22,0)" xlink:href="#C"/><use transform="matrix(0.05,0,0,0.05,27.950000000000003,0)" xlink:href="#x"/><use transform="matrix(0.05,0,0,0.05,36.95,0)" xlink:href="#w"/><use transform="matrix(0.05,0,0,0.05,46.95,0)" xlink:href="#C"/></g><path d="M24-231v-30h32v30H24zM24 0v-190h32V0H24" id="E"/><path d="M117-194c89-4 53 116 60 194h-32v-121c0-31-8-49-39-48C34-167 62-67 57 0H25l-1-190h30c1 10-1 24 2 32 11-22 29-35 61-36" id="F"/><g id="e"><use transform="matrix(0.05,0,0,0.05,0,0)" xlink:href="#z"/><use transform="matrix(0.05,0,0,0.05,12.950000000000001,0)" xlink:href="#t"/><use transform="matrix(0.05,0,0,0.05,22.950000000000003,0)" xlink:href="#A"/><use transform="matrix(0.05,0,0,0.05,32.95,0)" xlink:href="#B"/><use transform="matrix(0.05,0,0,0.05,37.95,0)" xlink:href="#E"/><use transform="matrix(0.05,0,0,0.05,41.900000000000006,0)" xlink:href="#F"/><use transform="matrix(0.05,0,0,0.05,51.900000000000006,0)" xlink:href="#u"/></g><path d="M101-234c-31-9-42 10-38 44h38v23H63V0H32v-167H5v-23h27c-7-52 17-82 69-68v24" id="G"/><path d="M24 0v-261h32V0H24" id="H"/><path d="M85-194c31 0 48 13 60 33l-1-100h32l1 261h-30c-2-10 0-23-3-31C134-8 116 4 85 4 32 4 16-35 15-94c0-66 23-100 70-100zm9 24c-40 0-46 34-46 75 0 40 6 74 45 74 42 0 51-32 51-76 0-42-9-74-50-73" id="I"/><g id="f"><use transform="matrix(0.05,0,0,0.05,0,0)" xlink:href="#G"/><use transform="matrix(0.05,0,0,0.05,5,0)" xlink:href="#E"/><use transform="matrix(0.05,0,0,0.05,8.95,0)" xlink:href="#w"/><use transform="matrix(0.05,0,0,0.05,18.95,0)" xlink:href="#H"/><use transform="matrix(0.05,0,0,0.05,22.9,0)" xlink:href="#I"/></g><g id="g"><use transform="matrix(0.05,0,0,0.05,0,0)" xlink:href="#I"/><use transform="matrix(0.05,0,0,0.05,10,0)" xlink:href="#w"/><use transform="matrix(0.05,0,0,0.05,20,0)" xlink:href="#G"/><use transform="matrix(0.05,0,0,0.05,25,0)" xlink:href="#y"/><use transform="matrix(0.05,0,0,0.05,35,0)" xlink:href="#A"/><use transform="matrix(0.05,0,0,0.05,45,0)" xlink:href="#H"/><use transform="matrix(0.05,0,0,0.05,48.95,0)" xlink:href="#B"/></g><path d="M115-194c55 1 70 41 70 98S169 2 115 4C84 4 66-9 55-30l1 105H24l-1-265h31l2 30c10-21 28-34 59-34zm-8 174c40 0 45-34 45-75s-6-73-45-74c-42 0-51 32-51 76 0 43 10 73 51 73" id="J"/><g id="h"><use transform="matrix(0.05,0,0,0.05,0,0)" xlink:href="#J"/><use transform="matrix(0.05,0,0,0.05,10,0)" xlink:href="#y"/><use transform="matrix(0.05,0,0,0.05,20,0)" xlink:href="#C"/><use transform="matrix(0.05,0,0,0.05,25.950000000000003,0)" xlink:href="#x"/><use transform="matrix(0.05,0,0,0.05,34.95,0)" xlink:href="#w"/><use transform="matrix(0.05,0,0,0.05,44.95,0)" xlink:href="#C"/></g><g id="i"><use transform="matrix(0.05,0,0,0.05,0,0)" xlink:href="#D"/><use transform="matrix(0.05,0,0,0.05,12,0)" xlink:href="#y"/><use transform="matrix(0.05,0,0,0.05,22,0)" xlink:href="#C"/><use transform="matrix(0.05,0,0,0.05,27.950000000000003,0)" xlink:href="#x"/><use transform="matrix(0.05,0,0,0.05,36.95,0)" xlink:href="#w"/><use transform="matrix(0.05,0,0,0.05,46.95,0)" xlink:href="#C"/></g><path d="M27 0v-27h64v-190l-56 39v-29l58-41h29v221h61V0H27" id="K"/><use transform="matrix(0.05,0,0,0.05,0,0)" xlink:href="#K" id="j"/><path d="M190 0L58-211 59 0H30v-248h39L202-35l-2-213h31V0h-41" id="L"/><use transform="matrix(0.05,0,0,0.05,0,0)" xlink:href="#L" id="k"/><g id="l"><use transform="matrix(0.05,0,0,0.05,0,0)" xlink:href="#J"/><use transform="matrix(0.05,0,0,0.05,10,0)" xlink:href="#y"/><use transform="matrix(0.05,0,0,0.05,20,0)" xlink:href="#C"/><use transform="matrix(0.05,0,0,0.05,25.950000000000003,0)" xlink:href="#x"/><use transform="matrix(0.05,0,0,0.05,34.95,0)" xlink:href="#w"/><use transform="matrix(0.05,0,0,0.05,44.95,0)" xlink:href="#C"/></g><path d="M96-169c-40 0-48 33-48 73s9 75 48 75c24 0 41-14 43-38l32 2c-6 37-31 61-74 61-59 0-76-41-82-99-10-93 101-131 147-64 4 7 5 14 7 22l-32 3c-4-21-16-35-41-35" id="M"/><g id="m"><use transform="matrix(0.05,0,0,0.05,0,0)" xlink:href="#x"/><use transform="matrix(0.05,0,0,0.05,9,0)" xlink:href="#t"/><use transform="matrix(0.05,0,0,0.05,19,0)" xlink:href="#A"/><use transform="matrix(0.05,0,0,0.05,29,0)" xlink:href="#C"/><use transform="matrix(0.05,0,0,0.05,34.95,0)" xlink:href="#M"/><use transform="matrix(0.05,0,0,0.05,43.95,0)" xlink:href="#w"/></g><path d="M179-190L93 31C79 59 56 82 12 73V49c39 6 53-20 64-50L1-190h34L92-34l54-156h33" id="N"/><g id="n"><use transform="matrix(0.05,0,0,0.05,0,0)" xlink:href="#B"/><use transform="matrix(0.05,0,0,0.05,5,0)" xlink:href="#N"/><use transform="matrix(0.05,0,0,0.05,14,0)" xlink:href="#J"/><use transform="matrix(0.05,0,0,0.05,24,0)" xlink:href="#w"/></g><path d="M108 0H70L1-190h34L89-25l56-165h34" id="O"/><g id="o"><use transform="matrix(0.05,0,0,0.05,0,0)" xlink:href="#w"/><use transform="matrix(0.05,0,0,0.05,10,0)" xlink:href="#O"/><use transform="matrix(0.05,0,0,0.05,19,0)" xlink:href="#w"/><use transform="matrix(0.05,0,0,0.05,29,0)" xlink:href="#F"/><use transform="matrix(0.05,0,0,0.05,39,0)" xlink:href="#B"/></g><use transform="matrix(0.05,0,0,0.05,0,0)" xlink:href="#K" id="p"/><g id="q"><use transform="matrix(0.05,0,0,0.05,0,0)" xlink:href="#x"/><use transform="matrix(0.05,0,0,0.05,9,0)" xlink:href="#t"/><use transform="matrix(0.05,0,0,0.05,19,0)" xlink:href="#A"/><use transform="matrix(0.05,0,0,0.05,29,0)" xlink:href="#C"/><use transform="matrix(0.05,0,0,0.05,34.95,0)" xlink:href="#M"/><use transform="matrix(0.05,0,0,0.05,43.95,0)" xlink:href="#w"/></g><use transform="matrix(0.05,0,0,0.05,0,0)" xlink:href="#L" id="r"/></defs></g></svg>